<svg width="56" height="56" viewBox="0 0 56 56" fill="none" xmlns="http://www.w3.org/2000/svg">
<g id="emojione-monotone:orange-book">
<path id="Vector" d="M30.1466 10.9297L12.8706 16.0379L17.0846 22.6669L34.9267 16.1333L30.1466 10.9297Z" fill="#2D576E" fill-opacity="0.75"/>
<path id="Vector_2" d="M29.421 5.25L6.04362 11.6996C6.04362 11.6996 1.75 11.5789 1.75 16.1394C1.75 18.0215 2.58475 19.4241 2.58475 19.4241L20.3945 49.2109C22.0972 51.9234 25.7136 50.225 25.7136 50.225L53.0233 36.9206L52.0013 35.8837C51.7606 34.6386 51.6206 32.333 53.3111 30.6163C53.3487 30.5778 53.3558 30.5253 53.3759 30.4771L54.25 30.1263L29.421 5.25ZM28.903 7.20825L51.142 29.4893L24.9655 40.4827L7.32812 13.0655L28.903 7.20825ZM19.7628 44.7458L4.09675 18.5413C4.08975 18.5316 3.5 17.4834 3.5 16.1394C3.5 14.4349 4.33475 13.7865 5.15112 13.5599L23.065 41.5039C21.7166 42.0875 20.2099 43.421 19.7628 44.7458ZM51.1105 33.3734C51.0536 33.7759 51.0247 34.1679 51.0309 34.5354L33.103 43.0448L51.0947 35.4095C51.1123 35.5486 51.128 35.6886 51.1499 35.8146L28.168 46.9149L51.331 36.6424L51.345 36.6966L25.7136 48.958C25.7014 48.9659 24.5315 49.588 23.359 49.588C22.2005 49.588 21.4786 48.993 21.1496 47.7698C20.3035 44.6268 25.1108 42.8452 25.1834 42.819L51.7685 31.3171C51.5778 31.6671 51.4456 32.0233 51.3354 32.3785L34.4593 40.3226L51.1105 33.3734Z" fill="#2D576E" fill-opacity="0.75"/>
</g>
</svg>
