<svg width="74" height="74" viewBox="0 0 74 74" fill="none" xmlns="http://www.w3.org/2000/svg">
<g id="fluent:document-bullet-list-multiple-20-regular">
<path id="Vector" d="M24.2174 37.0006C23.733 37.0006 23.2686 37.193 22.9261 37.5354C22.5837 37.8779 22.3913 38.3424 22.3913 38.8267C22.3913 39.311 22.5837 39.7755 22.9261 40.1179C23.2686 40.4604 23.733 40.6528 24.2174 40.6528C24.7017 40.6528 25.1661 40.4604 25.5086 40.1179C25.851 39.7755 26.0434 39.311 26.0434 38.8267C26.0434 38.3424 25.851 37.8779 25.5086 37.5354C25.1661 37.193 24.7017 37.0006 24.2174 37.0006ZM22.3913 46.131C22.3913 45.6467 22.5837 45.1822 22.9261 44.8398C23.2686 44.4973 23.733 44.3049 24.2174 44.3049C24.7017 44.3049 25.1661 44.4973 25.5086 44.8398C25.851 45.1822 26.0434 45.6467 26.0434 46.131C26.0434 46.6153 25.851 47.0798 25.5086 47.4223C25.1661 47.7647 24.7017 47.9571 24.2174 47.9571C23.733 47.9571 23.2686 47.7647 22.9261 47.4223C22.5837 47.0798 22.3913 46.6153 22.3913 46.131ZM29.6956 38.8267C29.6956 38.3424 29.888 37.8779 30.2305 37.5354C30.5729 37.193 31.0374 37.0006 31.5217 37.0006H46.1304C46.6147 37.0006 47.0792 37.193 47.4216 37.5354C47.7641 37.8779 47.9565 38.3424 47.9565 38.8267C47.9565 39.311 47.7641 39.7755 47.4216 40.1179C47.0792 40.4604 46.6147 40.6528 46.1304 40.6528H31.5217C31.0374 40.6528 30.5729 40.4604 30.2305 40.1179C29.888 39.7755 29.6956 39.311 29.6956 38.8267ZM31.5217 44.3049C31.0374 44.3049 30.5729 44.4973 30.2305 44.8398C29.888 45.1822 29.6956 45.6467 29.6956 46.131C29.6956 46.6153 29.888 47.0798 30.2305 47.4223C30.5729 47.7647 31.0374 47.9571 31.5217 47.9571H46.1304C46.6147 47.9571 47.0792 47.7647 47.4216 47.4223C47.7641 47.0798 47.9565 46.6153 47.9565 46.131C47.9565 45.6467 47.7641 45.1822 47.4216 44.8398C47.0792 44.4973 46.6147 44.3049 46.1304 44.3049H31.5217ZM22.3913 7.7832C20.454 7.7832 18.5961 8.55277 17.2263 9.9226C15.8565 11.2924 15.0869 13.1503 15.0869 15.0876V51.6093C15.0869 53.5465 15.8565 55.4044 17.2263 56.7742C18.5961 58.1441 20.454 58.9136 22.3913 58.9136H47.9565C49.8937 58.9136 51.7516 58.1441 53.1214 56.7742C54.4913 55.4044 55.2608 53.5465 55.2608 51.6093V27.5561C55.2596 26.1036 54.6815 24.7112 53.6539 23.6848L39.3593 9.38651C38.3323 8.36018 36.9399 7.78351 35.488 7.7832H22.3913ZM18.7391 15.0876C18.7391 14.1189 19.1239 13.19 19.8088 12.5051C20.4937 11.8202 21.4226 11.4354 22.3913 11.4354H33.3478V24.218C33.3478 25.6709 33.925 27.0643 34.9523 28.0917C35.9797 29.1191 37.3731 29.6962 38.826 29.6962H51.6087V51.6093C51.6087 52.5779 51.2239 53.5069 50.539 54.1918C49.854 54.8767 48.9251 55.2615 47.9565 55.2615H22.3913C21.4226 55.2615 20.4937 54.8767 19.8088 54.1918C19.1239 53.5069 18.7391 52.5779 18.7391 51.6093V15.0876ZM37 24.218V12.1914L50.8527 26.0441H38.826C38.3417 26.0441 37.8773 25.8517 37.5348 25.5092C37.1923 25.1668 37 24.7023 37 24.218ZM58.913 29.6962C59.8816 29.6962 60.8106 30.081 61.4955 30.7659C62.1804 31.4509 62.5652 32.3798 62.5652 33.3484V51.8284C62.5652 53.7181 62.193 55.5892 61.4698 57.3351C60.7467 59.0809 59.6868 60.6672 58.3506 62.0034C57.0144 63.3396 55.4281 64.3995 53.6823 65.1226C51.9364 65.8458 50.0653 66.218 48.1756 66.218H26.0434C25.0748 66.218 24.1459 65.8332 23.461 65.1483C22.776 64.4634 22.3913 63.5344 22.3913 62.5658H47.9565C50.8623 62.5658 53.6492 61.4115 55.7039 59.3567C57.7587 57.302 58.913 54.5151 58.913 51.6093V29.6962Z" fill="#C69B5F" fill-opacity="0.9"/>
</g>
</svg>
