<svg width="56" height="56" viewBox="0 0 56 56" fill="none" xmlns="http://www.w3.org/2000/svg">
<g id="dashicons:welcome-learn-more" clip-path="url(#clip0_44_322)">
<path id="Vector" d="M28 27.9996L7.112 19.6556L8.4 50.3996H2.8L4.144 18.4516L0 16.7996L28 5.59961L56 16.7996L28 27.9996ZM28 13.9996C26.46 13.9996 25.2 14.6156 25.2 15.3996C25.2 16.1836 26.46 16.7996 28 16.7996C29.54 16.7996 30.8 16.1836 30.8 15.3996C30.8 14.6156 29.54 13.9996 28 13.9996ZM28 30.7996L43.596 24.5556C45.584 27.1876 46.956 30.3516 47.404 33.7956C46.564 33.6836 45.696 33.5996 44.8 33.5996C37.66 33.5996 31.416 37.4356 28 43.1476C26.2661 40.2377 23.8063 37.8279 20.8613 36.1542C17.9164 34.4805 14.5873 33.6003 11.2 33.5996C10.304 33.5996 9.436 33.6836 8.596 33.7956C9.044 30.3516 10.416 27.1876 12.404 24.5556L28 30.7996Z" fill="#2D576E" fill-opacity="0.75"/>
</g>
<defs>
<clipPath id="clip0_44_322">
<rect width="56" height="56" fill="white"/>
</clipPath>
</defs>
</svg>
